<svg width="250" height="80" viewBox="0 0 250 80" fill="none" xmlns="http://www.w3.org/2000/svg">
<path d="M50 53.348C48.1513 53.348 46.652 51.8487 46.652 50C46.652 48.1507 48.1513 46.652 50 46.652C51.8487 46.652 53.348 48.1513 53.348 50C53.348 51.8487 51.8487 53.348 50 53.348ZM80 50C80 66.5693 66.5693 80 50 80C33.4313 80 20 66.5693 20 50C20 33.4313 33.4313 20 50 20C66.5693 20 80 33.4313 80 50ZM78.0693 50C78.0693 34.498 65.502 21.9313 50 21.9313C34.498 21.9313 21.9313 34.498 21.9313 50C21.9313 65.502 34.498 78.0693 50 78.0693C65.502 78.0693 78.0693 65.502 78.0693 50ZM76.8773 50C76.8773 56.0493 74.8787 61.632 71.5053 66.124C71.1887 66.5447 70.8593 66.9553 70.5193 67.3573C67.9453 70.398 64.708 72.8593 61.0307 74.5173C60.41 74.7967 59.7773 75.0527 59.1333 75.2847C56.282 76.3153 53.206 76.878 49.9993 76.878C46.7927 76.878 43.7173 76.3153 40.8653 75.2847C40.3693 75.1053 39.88 74.9113 39.398 74.7047C35.688 73.1107 32.4093 70.7053 29.7847 67.7127C29.438 67.3167 29.1027 66.912 28.7793 66.4967C25.2347 61.942 23.1227 56.218 23.1227 50C23.1227 49.708 23.1287 49.4173 23.138 49.128C23.15 48.7567 23.168 48.3873 23.1953 48.02C23.4947 43.9033 24.7213 40.0447 26.6673 36.65C26.9293 36.1927 27.206 35.7453 27.4933 35.3053C30.888 30.1167 36.0267 26.1733 42.078 24.3087C42.7307 24.108 43.3947 23.9313 44.0673 23.78C45.976 23.35 47.9613 23.122 49.9993 23.122C52.046 23.122 54.04 23.352 55.956 23.7853C56.4673 23.9013 56.972 24.0313 57.4713 24.1753C63.5647 25.9353 68.7667 29.792 72.2467 34.914C72.542 35.3487 72.824 35.7927 73.094 36.2453C75.1013 39.6087 76.394 43.4467 76.7647 47.5513C76.798 47.918 76.8253 48.2867 76.8433 48.658C76.866 49.1033 76.8773 49.5507 76.8773 50ZM71.162 37.3427L60.4813 43.398L59.6773 43.854C58.6927 44.6293 58.2453 45.964 58.6547 47.2247C59.0287 48.374 60.0133 49.1527 61.1327 49.3193L62.702 49.142L74.5573 47.8027C74.222 44.002 73.0247 40.45 71.162 37.3427ZM55.4487 40.6727C55.444 40.7013 55.4407 40.73 55.438 40.7587C55.402 41.166 55.5733 41.5813 55.9287 41.8393C56.2807 42.0953 56.7253 42.1313 57.1 41.9753C57.1313 41.962 57.162 41.948 57.192 41.9327L70.2047 35.8673C67.0813 31.4107 62.5227 28.0347 57.198 26.412L55.4487 40.6727ZM54.1227 50C54.1227 47.7233 52.2767 45.8773 50 45.8773C47.7233 45.8773 45.8773 47.7233 45.8773 50C45.8773 52.2767 47.7233 54.1227 50 54.1227C52.2767 54.1227 54.1227 52.2767 54.1227 50ZM49.9653 55.0173C49.3147 55.0173 48.7873 55.5447 48.7873 56.1953C48.7873 56.8467 49.3147 57.374 49.9653 57.374C50.616 57.374 51.1433 56.8467 51.1433 56.1953C51.1433 55.5447 50.616 55.0173 49.9653 55.0173ZM46.338 46.134C46.9887 46.134 47.516 45.606 47.516 44.9553C47.516 44.3047 46.9887 43.7773 46.338 43.7773C45.6873 43.7773 45.16 44.3053 45.16 44.9553C45.16 45.6067 45.6873 46.134 46.338 46.134ZM44.0753 50.7427C43.4247 50.7427 42.8973 51.27 42.8973 51.9207C42.8973 52.572 43.4247 53.0993 44.0753 53.0993C44.726 53.0993 45.2533 52.572 45.2533 51.9207C45.2533 51.27 44.726 50.7427 44.0753 50.7427ZM54.84 44.956C54.84 44.3053 54.3127 43.778 53.662 43.778C53.0107 43.778 52.4833 44.306 52.4833 44.956C52.4833 45.6067 53.0107 46.1347 53.662 46.1347C54.3127 46.134 54.84 45.6067 54.84 44.956ZM54.7467 51.9207C54.7467 52.572 55.274 53.0993 55.9253 53.0993C56.576 53.0993 57.1033 52.572 57.1033 51.9207C57.1033 51.27 56.576 50.7427 55.9253 50.7427C55.274 50.7427 54.7467 51.27 54.7467 51.9207ZM44.5127 25.958L46.9333 37.7993L47.1927 39.0667C47.6693 40.1507 48.752 40.908 50.0127 40.908C51.2727 40.908 52.3553 40.1507 52.8327 39.0673L53.092 37.7987L55.512 25.9627C53.74 25.558 51.8947 25.344 50 25.344C48.114 25.344 46.2773 25.5567 44.5127 25.958ZM29.55 36.2213L42.672 42.0613C42.6993 42.0747 42.7267 42.0867 42.7547 42.098C43.1333 42.2507 43.58 42.208 43.93 41.9447C44.278 41.6827 44.442 41.2687 44.4027 40.8647C44.3993 40.8307 44.3947 40.7967 44.3887 40.7633L42.392 26.542C37.104 28.256 32.5987 31.706 29.55 36.2213ZM25.408 48.2313L37.518 49.386L38.6493 49.494C39.8573 49.3827 40.936 48.56 41.3127 47.328C41.674 46.1467 41.2887 44.9147 40.4273 44.1387L39.1747 43.4567L28.6193 37.7127C26.8127 40.8487 25.678 44.4207 25.408 48.2313ZM40.1047 54.3473C40.1293 54.3233 40.152 54.2987 40.174 54.2727C40.438 53.9647 40.5413 53.5313 40.4067 53.1173C40.272 52.7013 39.932 52.4107 39.5353 52.318C39.5047 52.3107 39.4733 52.3047 39.4413 52.3L25.3487 49.5587C25.346 49.706 25.3433 49.8527 25.3433 50.0007C25.3433 55.576 27.1947 60.7187 30.3153 64.8487L40.1047 54.3473ZM45.3573 61.598L45.8267 60.5647C46.1153 59.386 45.688 58.0973 44.646 57.34C43.6493 56.616 42.3647 56.5767 41.352 57.132L40.2827 58.1107L31.4247 66.2127C33.848 68.9867 36.8827 71.2127 40.318 72.6813L45.3573 61.598ZM50.7387 75.778C50.7387 75.346 50.408 74.9953 50 74.9953C49.592 74.9953 49.2607 75.3453 49.2607 75.778C49.2607 76.2107 49.592 76.5607 50 76.5607C50.408 76.5607 50.7387 76.21 50.7387 75.778ZM58.0413 73.314L51.0747 60.7507C51.0607 60.7233 51.046 60.6967 51.0307 60.67C50.82 60.3213 50.4373 60.0867 50 60.0867C49.5633 60.0867 49.182 60.32 48.9707 60.668C48.954 60.6953 48.9387 60.7233 48.9247 60.752L41.9587 73.314C44.4793 74.1833 47.184 74.6567 50 74.6567C52.816 74.6567 55.5207 74.1827 58.0413 73.314ZM68.8547 65.8853L59.7327 57.8293L58.9033 57.0967C57.8587 56.4687 56.4953 56.4973 55.462 57.2767C54.476 58.0193 54.0627 59.2413 54.3027 60.3747L54.9173 61.666L60.076 72.5093C63.4827 70.982 66.4787 68.704 68.8547 65.8853ZM74.656 50C74.656 49.708 74.6487 49.4173 74.6393 49.128L60.598 52.1147C60.5653 52.1207 60.534 52.1273 60.5027 52.1347C60.108 52.2347 59.7733 52.5313 59.646 52.9493C59.5187 53.3667 59.63 53.7987 59.9007 54.102C59.922 54.1267 59.9447 54.15 59.9693 54.1727L69.94 64.502C72.9047 60.432 74.656 55.4207 74.656 50Z" fill="#FFAA64"/>
<path d="M145.945 71.1994C140.987 75.4607 134.711 77.7851 127.738 77.7851C113.636 77.7851 100 66.3182 100 49.8926C100 33.4669 113.636 22 127.738 22C134.633 22 140.832 24.3244 145.713 28.4308L141.761 32.9246C137.965 29.9029 133.084 28.1209 128.202 28.1209C117.123 28.1209 106.663 37.1085 106.663 49.8926C106.663 62.6767 117.123 71.6643 128.202 71.6643C133.161 71.6643 138.12 69.8048 141.916 66.7056L145.945 71.1994ZM197.159 77.0103L191.581 64.2262H162.603L157.025 77.0103H150.207L174.38 22.7748H179.726L203.977 77.0103H197.159ZM165.005 58.8027H189.179L177.092 31.22L165.005 58.8027ZM250 77.0103H243.027L229.313 57.4855H227.841H216.606V77.0103H210.176V22.7748H227.841C240.005 22.7748 247.056 30.2128 247.056 40.2851C247.056 48.0331 242.872 54.0764 235.434 56.4008L250 77.0103ZM216.606 28.8182V51.7521H227.686C235.511 51.7521 240.625 47.7231 240.625 40.2851C240.625 32.7696 235.511 28.8182 227.686 28.8182H216.606Z" fill="#FF8264"/>
</svg>
